<svg xmlns="http://www.w3.org/2000/svg" width="50" height="50" viewBox="0 0 50 50">
  <path fill="#008FD7" fill-rule="evenodd" d="M25,0 C38.8071187,0 50,11.1928813 50,25 C50,38.8071187 38.8071187,50 25,50 C11.1928813,50 0,38.8071187 0,25 C0,11.1928813 11.1928813,0 25,0 Z M25,3.125 C12.9187711,3.125 3.125,12.9187711 3.125,25 C3.125,37.0812289 12.9187711,46.875 25,46.875 C37.0812289,46.875 46.875,37.0812289 46.875,25 C46.875,12.9187711 37.0812289,3.125 25,3.125 Z M14.0866221,15.4802144 C14.0866221,15.4802144 15.625,14.113979 16.40625,14.84375 C17.1875,15.5735209 16.9883833,16.8491442 16.5372651,17.4192795 C14.9462645,19.4300293 14.0625,21.9399208 14.0625,24.6011095 C14.0625,30.881284 18.9792497,35.9375 25,35.9375 C31.0207503,35.9375 35.9375,30.881284 35.9375,24.6011095 C35.9375,21.9780891 35.0790616,19.5018049 33.5295822,17.5045978 C33.0836748,16.9298438 32.8125,15.589042 33.5295826,14.84375 C34.2466652,14.098458 35.998645,15.5890419 35.998645,15.5890419 C37.9162658,18.0607664 39.0625,21.1932823 39.0625,24.6011095 C39.0625,32.5879149 32.7665043,39.0625 25,39.0625 C17.2334957,39.0625 10.9375,32.5879149 10.9375,24.6011095 C10.9375,21.1430696 12.1177615,17.9685138 14.0866221,15.4802144 Z M25,10.9375 C25.8629449,10.9375 26.5625,11.6348616 26.5625,12.4961635 L26.5625,23.4413365 C26.5625,24.2543389 25.9438805,24.9219595 25.1431137,24.9936303 L25,25 C24.1370551,25 23.4375,24.3026384 23.4375,23.4413365 L23.4375,12.4961635 C23.4375,11.6831611 24.0561195,11.0155405 24.8568863,10.9438697 L25,10.9375 Z"/>
</svg>
