<svg xmlns="http://www.w3.org/2000/svg" width="32" height="32" viewBox="0 0 32 32">
  <path fill-rule="evenodd" d="M16,0 C24.836556,0 32,7.163444 32,16 C32,24.836556 24.836556,32 16,32 C7.163444,32 0,24.836556 0,16 C0,7.163444 7.163444,0 16,0 Z M16,2.62295082 C8.61205974,2.62295082 2.62295082,8.61205974 2.62295082,16 C2.62295082,23.3879403 8.61205974,29.3770492 16,29.3770492 C23.3879403,29.3770492 29.3770492,23.3879403 29.3770492,16 C29.3770492,8.61205974 23.3879403,2.62295082 16,2.62295082 Z M10.9010067,8.61935881 C11.7447292,9.15297758 11.5546376,10.070247 11.1604008,10.6079309 C10.2366467,11.8678024 9.73406193,13.4329067 9.73406193,15.0787217 C9.73406193,18.9761439 12.550135,22.1183049 16,22.1183049 C19.449865,22.1183049 22.2659381,18.9761439 22.2659381,15.0787217 C22.2659381,13.4564048 21.7777144,11.9123018 20.8780559,10.6608988 C20.4872808,10.1173401 20.0938346,9.07302931 20.8780559,8.45569229 C21.6622772,7.83835527 22.6495943,8.99579814 22.7776991,9.12085337 C23.9869138,10.8028415 24.6557377,12.8848637 24.6557377,15.0787217 C24.6557377,20.3622223 20.7868752,24.6557377 16,24.6557377 C11.2131248,24.6557377 7.3442623,20.3622223 7.3442623,15.0787217 C7.3442623,12.852798 8.03286694,10.7423699 9.30467502,9.01449712 C9.38587825,8.93667232 10.0572842,8.08574004 10.9010067,8.61935881 Z M16,7.3442623 C16.6789956,7.3442623 17.2375384,7.85899202 17.3047039,8.51927391 L17.3114754,8.6531616 L17.3114754,16.0025761 C17.3114754,16.6254261 16.8769659,17.1519631 16.2705607,17.2822596 L16.1380813,17.3040061 L16,17.3114754 C15.3210044,17.3114754 14.7624616,16.7967457 14.6952961,16.1364638 L14.6885246,16.0025761 L14.6885246,8.6531616 C14.6885246,8.03031159 15.1230341,7.50377457 15.7294393,7.37347806 L15.8619187,7.35173158 L16,7.3442623 Z"/>
</svg>
