<svg xmlns="http://www.w3.org/2000/svg" width="50" height="50" viewBox="0 0 50 50">
  <path fill="#5E676F" fill-rule="evenodd" d="M25,50 C11.1928813,50 0,38.8071187 0,25 C0,11.1928813 11.1928813,0 25,0 C38.8071187,0 50,11.1928813 50,25 C50,38.8071187 38.8071187,50 25,50 L25,50 Z M25,46.875 C37.0812289,46.875 46.875,37.0812289 46.875,25 C46.875,12.9187711 37.0812289,3.125 25,3.125 C12.9187711,3.125 3.125,12.9187711 3.125,25 C3.125,37.0812289 12.9187711,46.875 25,46.875 L25,46.875 Z M25,43.75 C14.6446609,43.75 6.25,35.3553391 6.25,25 C6.25,14.6446609 14.6446609,6.25 25,6.25 C35.3553391,6.25 43.75,14.6446609 43.75,25 C43.75,35.3553391 35.3553391,43.75 25,43.75 L25,43.75 Z M25,42.1875 C34.4923941,42.1875 42.1875,34.4923941 42.1875,25 C42.1875,15.5076059 34.4923941,7.8125 25,7.8125 C15.5076059,7.8125 7.8125,15.5076059 7.8125,25 C7.8125,34.4923941 15.5076059,42.1875 25,42.1875 L25,42.1875 Z M20.3125,13.28125 C20.3125,12.8497775 20.6485271,12.5 21.0788727,12.5 L25.7961273,12.5 C26.2193833,12.5 26.5625,12.8623962 26.5625,13.28125 C26.5625,13.7127225 26.2264729,14.0625 25.7961273,14.0625 L21.0788727,14.0625 C20.6556167,14.0625 20.3125,13.7001038 20.3125,13.28125 L20.3125,13.28125 Z M15.625,17.96875 C15.625,17.5372775 15.9810632,17.1875 16.3921956,17.1875 L24.2328044,17.1875 C24.6565148,17.1875 25,17.5498962 25,17.96875 C25,18.4002225 24.6439368,18.75 24.2328044,18.75 L16.3921956,18.75 C15.9684852,18.75 15.625,18.3876038 15.625,17.96875 L15.625,17.96875 Z M12.5,22.65625 C12.5,22.2247775 12.8476143,21.875 13.2963529,21.875 L25.7661471,21.875 C26.2059607,21.875 26.5625,22.2373962 26.5625,22.65625 C26.5625,23.0877225 26.2148857,23.4375 25.7661471,23.4375 L13.2963529,23.4375 C12.8565393,23.4375 12.5,23.0751038 12.5,22.65625 L12.5,22.65625 Z M12.5,27.34375 C12.5,26.9122775 12.8534079,26.5625 13.2756144,26.5625 L36.7243856,26.5625 C37.1527456,26.5625 37.5,26.9248962 37.5,27.34375 C37.5,27.7752225 37.1465921,28.125 36.7243856,28.125 L13.2756144,28.125 C12.8472544,28.125 12.5,27.7626038 12.5,27.34375 L12.5,27.34375 Z M15.625,32.03125 C15.625,31.5997775 15.9828134,31.25 16.4067927,31.25 L33.5932073,31.25 C34.0249795,31.25 34.375,31.6123962 34.375,32.03125 C34.375,32.4627225 34.0171866,32.8125 33.5932073,32.8125 L16.4067927,32.8125 C15.9750205,32.8125 15.625,32.4501038 15.625,32.03125 L15.625,32.03125 Z M20.3125,36.71875 C20.3125,36.2872775 20.6685632,35.9375 21.0796956,35.9375 L28.9203044,35.9375 C29.3440148,35.9375 29.6875,36.2998962 29.6875,36.71875 C29.6875,37.1502225 29.3314368,37.5 28.9203044,37.5 L21.0796956,37.5 C20.6559852,37.5 20.3125,37.1376038 20.3125,36.71875 L20.3125,36.71875 Z M32.03125,21.875 C29.8738877,21.875 28.125,20.1261123 28.125,17.96875 C28.125,15.8113877 29.8738877,14.0625 32.03125,14.0625 C34.1886123,14.0625 35.9375,15.8113877 35.9375,17.96875 C35.9375,20.1261123 34.1886123,21.875 32.03125,21.875 L32.03125,21.875 Z M32.03125,20.3125 C33.3256674,20.3125 34.375,19.2631674 34.375,17.96875 C34.375,16.6743326 33.3256674,15.625 32.03125,15.625 C30.7368326,15.625 29.6875,16.6743326 29.6875,17.96875 C29.6875,19.2631674 30.7368326,20.3125 32.03125,20.3125 L32.03125,20.3125 Z"/>
</svg>
