<svg xmlns="http://www.w3.org/2000/svg" xmlns:xlink="http://www.w3.org/1999/xlink" width="200" height="250" viewBox="0 0 200 250">
  <g fill="none" fill-rule="evenodd" transform="translate(-275 -431)">
    <g transform="translate(25 271)">
      <ellipse cx="350" cy="389.5" fill="#000" fill-opacity=".2" rx="70" ry="14.5"/>
      <g fill="#D9D9D9" transform="translate(207 13)">
        <path fill-rule="nonzero" d="M203,157 C219.568542,157 233,170.431458 233,187 L233,307 C233,323.568542 219.568542,337 203,337 L83,337 C66.4314575,337 53,323.568542 53,307 L53,187 C53,170.431458 66.4314575,157 83,157 L203,157 Z M203,167 L83,167 C72.0693643,167 63.186775,175.768729 63.0029071,186.655511 L63,187 L63,307 C63,317.930636 71.7687286,326.813225 82.6555106,326.997093 L83,327 L203,327 C213.930636,327 222.813225,318.231271 222.997093,307.344489 L223,307 L223,187 C223,176.069364 214.231271,167.186775 203.344489,167.002907 L203,167 Z M143,187 C176.137085,187 203,213.862915 203,247 C203,280.137085 176.137085,307 143,307 C109.862915,307 83,280.137085 83,247 C83,213.862915 109.862915,187 143,187 Z M143,197 C115.385763,197 93,219.385763 93,247 C93,274.614237 115.385763,297 143,297 C170.614237,297 193,274.614237 193,247 C193,219.385763 170.614237,197 143,197 Z M149,271 C151.209139,271 153,272.790861 153,275 C153,277.209139 151.209139,279 149,279 L137,279 C134.790861,279 133,277.209139 133,275 C133,272.790861 134.790861,271 137,271 L149,271 Z M131,236 C133.209139,236 135,237.790861 135,240 C135,242.209139 133.209139,244 131,244 L119,244 C116.790861,244 115,242.209139 115,240 C115,237.790861 116.790861,236 119,236 L131,236 Z M166,236 C168.209139,236 170,237.790861 170,240 C170,242.209139 168.209139,244 166,244 L154,244 C151.790861,244 150,242.209139 150,240 C150,237.790861 151.790861,236 154,236 L166,236 Z"/>
      </g>
    </g>
  </g>
</svg>
