<svg xmlns="http://www.w3.org/2000/svg" xmlns:xlink="http://www.w3.org/1999/xlink" width="200" height="250" viewBox="0 0 200 250">
  <defs>
    <path id="on-b" d="M293,156 C309.568542,156 323,169.431458 323,186 L323,306 C323,322.568542 309.568542,336 293,336 L173,336 C156.431458,336 143,322.568542 143,306 L143,186 C143,169.431458 156.431458,156 173,156 L293,156 Z M293,166 L173,166 C162.069364,166 153.186775,174.768729 153.002907,185.655511 L153,186 L153,306 C153,316.930636 161.768729,325.813225 172.655511,325.997093 L173,326 L293,326 C303.930636,326 312.813225,317.231271 312.997093,306.344489 L313,306 L313,186 C313,175.069364 304.231271,166.186775 293.344489,166.002907 L293,166 Z M233,186 C266.137085,186 293,212.862915 293,246 C293,279.137085 266.137085,306 233,306 C199.862915,306 173,279.137085 173,246 C173,212.862915 199.862915,186 233,186 Z M233,196 C205.385763,196 183,218.385763 183,246 C183,273.614237 205.385763,296 233,296 C260.614237,296 283,273.614237 283,246 C283,218.385763 260.614237,196 233,196 Z M243,270 L243,274.5 C243,278.642136 239.642136,282 235.5,282 L230.5,282 C226.357864,282 223,278.642136 223,274.5 L223,270 L243,270 Z M215.5,214 C219.642136,214 223,217.357864 223,221.5 L223,246.5 C223,250.642136 219.642136,254 215.5,254 C211.357864,254 208,250.642136 208,246.5 L208,221.5 C208,217.357864 211.357864,214 215.5,214 Z M250.5,214 C254.642136,214 258,217.357864 258,221.5 L258,246.5 C258,250.642136 254.642136,254 250.5,254 C246.357864,254 243,250.642136 243,246.5 L243,221.5 C243,217.357864 246.357864,214 250.5,214 Z"/>
    <filter id="on-a" width="120%" height="120%" x="-10%" y="-10%" filterUnits="objectBoundingBox">
      <feMorphology in="SourceAlpha" operator="dilate" radius="1" result="shadowSpreadOuter1"/>
      <feOffset in="shadowSpreadOuter1" result="shadowOffsetOuter1"/>
      <feGaussianBlur in="shadowOffsetOuter1" result="shadowBlurOuter1" stdDeviation="5"/>
      <feColorMatrix in="shadowBlurOuter1" values="0 0 0 0 1   0 0 0 0 0.868805999   0 0 0 0 0  0 0 0 0.65 0"/>
    </filter>
  </defs>
  <g fill="none" fill-rule="evenodd" transform="translate(-250 -160)">
    <ellipse cx="350" cy="389.5" fill="#000" fill-opacity=".2" rx="70" ry="14.5"/>
    <g fill-rule="nonzero" transform="translate(117 13)">
      <use fill="#000" filter="url(#on-a)" xlink:href="#on-b"/>
      <use fill="#D9D9D9" xlink:href="#on-b"/>
    </g>
  </g>
</svg>
