<svg xmlns="http://www.w3.org/2000/svg" width="50" height="50" viewBox="0 0 50 50">
  <path fill="#5E676F" fill-rule="evenodd" d="M25,50 C38.8071187,50 50,38.8071187 50,25 C50,11.1928813 38.8071187,0 25,0 C11.1928813,0 0,11.1928813 0,25 C0,38.8071187 11.1928813,50 25,50 L25,50 Z M25,46.875 C12.9187711,46.875 3.125,37.0812289 3.125,25 C3.125,12.9187711 12.9187711,3.125 25,3.125 C37.0812289,3.125 46.875,12.9187711 46.875,25 C46.875,37.0812289 37.0812289,46.875 25,46.875 L25,46.875 Z M25,43.75 C14.6446609,43.75 6.25,35.3553391 6.25,25 C6.25,14.6446609 14.6446609,6.25 25,6.25 C35.3553391,6.25 43.75,14.6446609 43.75,25 C43.75,35.3553391 35.3553391,43.75 25,43.75 L25,43.75 Z M25,42.1875 C34.4923941,42.1875 42.1875,34.4923941 42.1875,25 C42.1875,15.5076059 34.4923941,7.8125 25,7.8125 C15.5076059,7.8125 7.8125,15.5076059 7.8125,25 C7.8125,34.4923941 15.5076059,42.1875 25,42.1875 L25,42.1875 Z M21.685437,28.314563 C23.5160196,30.1451457 26.4839804,30.1451457 28.314563,28.314563 C30.1451457,26.4839804 37.1533978,15.0563109 36.0485435,13.9514565 C34.9436891,12.8466022 23.5160196,19.8548543 21.685437,21.685437 C19.8548543,23.5160196 19.8548543,26.4839804 21.685437,28.314563 L21.685437,28.314563 Z M23.8951457,26.1048543 C24.5053399,26.7150486 25.4946601,26.7150486 26.1048543,26.1048543 C26.7150486,25.4946601 26.7150486,24.5053399 26.1048543,23.8951457 C25.4946601,23.2849514 24.5053399,23.2849514 23.8951457,23.8951457 C23.2849514,24.5053399 23.2849514,25.4946601 23.8951457,26.1048543 L23.8951457,26.1048543 Z"/>
</svg>
